<svg width="367" height="135" viewBox="0 0 367 135" fill="none" xmlns="http://www.w3.org/2000/svg">
  <path
    d="M30.44 76.28C29.96 71.96 29.48 69.08 29.48 66.04C29.64 60.92 29.96 55.8 30.76 50.68C31.88 43.64 30.6 37.08 29.32 30.2C28.52 26.52 27.56 22.52 25.16 19.8C20.84 14.52 15.4 10.84 8.2 9.72C5.64 9.23999 5.16 17.72 5.16 19.64C5.16 28.6 5.32 37.56 5.16 46.52C5.16 50.68 5 54.84 4.68 59C4.2 65.88 3.56 72.28 2.92 79.16C2.44 82.36 2.12 85.56 1.96 88.76C1.16 96.6 0.52 104.44 1.64 112.28C2.12 116.12 3.08 119.64 5.48 122.84C6.92 124.6 8.52 125.24 10.6 124.44C13 123.64 14.92 122.84 17.32 122.2C21.8 120.92 23.88 117.72 25.32 113.24C27.88 105.08 31.24 82.68 32.68 81.72C37.64 79.32 41.64 75.8 47.4 75C48.2 77.08 45.96 90.68 45.16 97.24C45 99 45 100.44 45 102.2C45.48 108.76 47.56 111.48 53.48 113.24C55.56 113.72 57.96 113.08 60.68 113.08C62.44 107.48 63.56 102.36 65.96 99C67.08 97.24 68.52 95.96 69.8 94.2C73.48 90.36 76.52 86.2 80.36 82.52C84.68 78.84 89.48 75.96 94.12 72.92C97.48 70.52 97.8 70.04 95.24 66.36C85.64 70.68 78.44 77.72 69.96 83.96C69.96 81.72 78.44 50.04 78.44 44.44C78.44 37.56 76.52 31 74.12 24.6C73.32 22.36 71.72 20.6 69.48 19.16C65.48 16.76 61.32 17.24 57 18.04C56.36 18.2 55.88 19.48 55.72 20.28C54.6 24.6 54.12 28.6 53.48 32.6C52.84 35.96 52.04 39.32 51.56 42.52C50.44 49.08 49.96 55.64 48.84 62.2C48.68 63.32 48.36 64.76 47.56 65.4C44.84 67.8 42.28 70.04 39.24 71.96C36.68 73.72 33.8 74.52 30.44 76.28ZM160.298 81.88C158.538 84.28 157.418 86.84 155.658 89.24C149.418 96.76 141.738 102.04 133.898 107.64C131.498 109.4 128.298 110.2 125.258 110.68C116.138 111.96 111.818 107.32 113.098 97.88C114.218 92.28 115.818 87.16 118.858 82.2C119.498 82.04 119.978 81.88 120.298 81.88C136.778 79.32 144.778 62.36 145.578 59.8C147.498 55.48 148.458 51.16 145.898 46.2C144.778 44.44 143.018 43.64 142.538 41.88C141.898 39.16 139.978 37.88 137.418 37.24C135.338 36.76 129.258 36.6 123.018 38.04C117.418 40.44 114.698 43.64 112.618 47.32C108.298 54.84 104.298 62.68 100.618 70.52C95.6575 80.76 95.9775 90.84 100.298 101.08C104.298 110.68 111.178 117.08 122.218 116.92C127.338 116.76 132.458 115.96 136.778 112.6C145.738 105.4 154.378 97.72 160.778 87.96C162.538 85.56 163.498 83.16 162.218 79.48L160.298 81.88ZM118.698 78.2C119.818 74.2 121.098 72.92 122.858 68.6C124.618 65.56 126.538 59.32 136.298 43.96C138.378 43.8 139.498 44.6 139.978 46.68C142.058 57.4 139.978 65.72 130.858 72.28C127.498 74.68 124.298 76.92 118.698 78.2ZM226.555 77.88C225.435 77.56 224.315 80.44 223.835 81.4C223.195 82.52 222.715 83.8 221.915 85.08L211.515 102.52C208.475 107.48 205.275 112.28 201.915 116.92C199.035 121.4 192.795 128.28 189.915 127.48C187.835 112.44 193.595 86.04 202.555 56.44C202.875 55 207.675 49.72 216.955 30.2C221.755 20.6 221.435 2.35999 216.475 1.87999C212.155 0.759996 209.275 1.71999 207.835 3C195.035 10.68 179.675 39.8 179.035 40.44C173.435 51.48 170.235 63.16 168.315 75.32C167.035 82.36 165.755 89.56 164.315 96.6C163.035 102.52 162.395 108.44 163.515 114.68C165.275 126.04 176.475 133.88 185.435 134.36C189.755 134.84 193.915 133.56 197.115 130.36C217.275 106.36 223.195 92.76 225.435 87.48C226.555 84.44 227.195 82.2 226.555 77.88ZM196.795 56.92C191.995 50.36 198.395 30.84 199.835 26.36C201.275 21.24 203.515 16.44 206.875 12.12L208.315 10.2C209.435 8.76 210.875 7.96 212.315 9.07999C213.755 9.87999 215.515 10.84 215.035 13.24C214.555 15.64 214.715 18.2 214.235 20.6C212.155 29.56 209.755 38.04 205.115 45.88C202.715 49.56 199.995 52.92 196.795 56.92ZM290.618 77.88C289.498 77.56 288.378 80.44 287.898 81.4C287.258 82.52 286.778 83.8 285.978 85.08L275.578 102.52C272.538 107.48 269.338 112.28 265.978 116.92C263.098 121.4 256.858 128.28 253.978 127.48C251.898 112.44 257.658 86.04 266.618 56.44C266.938 55 271.738 49.72 281.018 30.2C285.818 20.6 285.498 2.35999 280.538 1.87999C276.218 0.759996 273.338 1.71999 271.898 3C259.098 10.68 243.738 39.8 243.098 40.44C237.497 51.48 234.298 63.16 232.378 75.32C231.098 82.36 229.818 89.56 228.378 96.6C227.098 102.52 226.457 108.44 227.578 114.68C229.338 126.04 240.538 133.88 249.498 134.36C253.818 134.84 257.978 133.56 261.178 130.36C281.338 106.36 287.258 92.76 289.498 87.48C290.618 84.44 291.258 82.2 290.618 77.88ZM260.858 56.92C256.058 50.36 262.458 30.84 263.898 26.36C265.338 21.24 267.578 16.44 270.938 12.12L272.378 10.2C273.498 8.76 274.938 7.96 276.378 9.07999C277.818 9.87999 279.578 10.84 279.098 13.24C278.618 15.64 278.778 18.2 278.298 20.6C276.218 29.56 273.818 38.04 269.177 45.88C266.778 49.56 264.058 52.92 260.858 56.92ZM322.84 47.64C321.56 43 317.56 40.76 313.72 38.68C310.04 36.92 309.08 36.92 306.36 39.96C304.44 42.2 302.84 44.44 301.4 46.84C295.64 57.08 293.4 68.12 291.48 79.64C290.68 84.12 290.84 88.76 291.96 93.24C294.04 104.44 303.8 114.2 315.32 115.48C324.44 116.6 331.64 113.24 336.92 105.72C338.68 103 345.24 89.88 345.56 89.08C349.56 88.6 352.92 88.6 356.12 87.96C359.32 87.48 366.2 82.84 366.2 81.72C365.4 81.24 364.6 80.44 363.8 80.44C362.68 80.44 361.88 80.92 360.76 81.4C357.72 82.68 354.36 83.64 351.16 84.76C349.4 85.24 347.8 84.76 345.72 84.76L347 79.8C348.28 69.4 343.32 57.72 342.04 55C339.48 50.52 335.32 45.88 328.92 46.68C327 47.16 325.24 47.16 322.84 47.64ZM337.24 84.76C334.68 91 332.12 96.76 329.4 103C328.12 106.04 326.36 108.76 323.16 110.2C319.48 111.96 317.4 111.32 315.48 107.64C312.6 102.36 312.28 97.08 314.68 91.48C316.6 87 318.36 82.52 320.12 78.04C321.24 75.32 322.2 72.6 323.32 70.04L337.24 84.76ZM327.48 49.56C332.44 49.08 335.8 51.32 336.92 55.32C340.28 71.48 338.68 76.76 337.4 79.8C335.32 78.04 333.24 76.28 331.48 74.2C329.72 72.44 328.76 70.68 327.32 68.76C325.4 66.04 325.24 62.68 325.72 59.64C326.2 56.28 326.84 53.24 327.48 49.56Z"
    fill="white" />
</svg>