<svg width="36" height="36" viewBox="0 0 36 36" fill="none" xmlns="http://www.w3.org/2000/svg">
  <path
    d="M18 3C9.72 3 3 9.72 3 18C3 26.28 9.72 33 18 33C26.28 33 33 26.28 33 18C33 9.72 26.28 3 18 3ZM19.5 7.95L21.525 6.525C24.255 7.365 26.58 9.165 28.095 11.535L27.51 13.545L25.485 14.235L19.5 10.05V7.95ZM14.475 6.525L16.5 7.95V10.05L10.515 14.235L8.49 13.545L7.905 11.535C9.42 9.18 11.745 7.38 14.475 6.525ZM10.62 25.665L8.91 25.815C7.095 23.715 6 20.985 6 18C6 17.82 6.015 17.655 6.03 17.475L7.53 16.38L9.6 17.1L11.79 23.61L10.62 25.665ZM21.75 29.385C20.565 29.775 19.305 30 18 30C16.695 30 15.435 29.775 14.25 29.385L13.215 27.15L14.175 25.5H21.84L22.8 27.165L21.75 29.385ZM21.405 22.5H14.595L12.57 16.47L18 12.66L23.445 16.47L21.405 22.5ZM27.09 25.815L25.38 25.665L24.195 23.61L26.385 17.1L28.47 16.395L29.97 17.49C29.985 17.655 30 17.82 30 18C30 20.985 28.905 23.715 27.09 25.815Z"
    fill="#FE14D3" />
</svg>